<svg width="183" height="184" viewBox="0 0 183 184" fill="none" xmlns="http://www.w3.org/2000/svg">
<path d="M102.512 167.787L100.846 161.79C100.689 161.053 100.386 160.54 100.268 159.988C98.6253 155.911 95.6208 152.702 91.5575 150.874C87.4942 149.046 83.0449 149.033 78.949 150.677C74.8531 152.321 71.6262 155.319 69.7838 159.37L67.2918 164.906L61.5528 162.473C55.1805 159.79 49.0209 156.292 43.4832 152.084L38.618 148.31L42.3766 143.273C45.6984 138.907 46.5147 132.765 44.6359 127.584C41.6525 119.943 33.7779 115.656 25.8267 117.352L19.0635 119.18L17.3974 113.183C16.0455 108.66 15.2091 103.833 14.7819 99.112C14.4954 96.8631 14.3939 94.5749 14.4772 92.2472L14.5146 86.0794L20.8524 85.8822C22.7801 85.8559 24.6293 85.4614 26.4391 84.8828C33.415 82.2395 37.7054 75.1643 36.9131 67.8261C36.7838 66.3138 36.4695 64.8408 35.7854 63.4468C34.5629 60.4353 32.6793 57.9498 30.1739 56.1744L25.1238 52.4395L28.6583 47.258C32.8538 41.5506 37.7219 36.2771 43.1563 31.8453L47.9295 27.9395L52.0273 32.6476C56.4278 37.8685 64.0159 39.9069 70.6219 37.3426C77.228 34.7782 81.4906 28.4789 81.1467 21.4301L80.9992 15.3017L87.1128 14.9598C94.1903 14.6048 101.055 15.0652 107.971 16.6696L114.068 18.0637L112.842 24.0999C112.137 27.1378 112.435 30.3466 113.658 33.3581C115.301 37.4349 118.305 40.6438 122.369 42.4718C126.432 44.2998 130.881 44.313 135.016 42.8533C136.787 42.0905 138.518 41.1437 139.986 39.868L144.72 35.7782L149.003 40.4468C153.812 45.7729 157.776 51.6645 160.894 58.1217L163.63 63.6977L158.066 66.6171C152.133 69.6155 148.503 76.1646 149.323 82.7269C149.453 84.2393 149.767 85.7122 150.451 87.1062C152.554 92.4323 157.01 96.1014 162.698 97.3903L168.756 98.6002L167.716 104.597C166.463 111.409 164.391 118.011 161.317 124.442L158.64 130.018L152.901 127.585C148.877 125.941 144.388 125.743 140.292 127.387C133.316 130.031 129.026 137.106 129.779 144.26C129.908 145.772 130.222 147.245 130.907 148.639C131.024 149.191 131.327 149.704 131.63 150.217L134.551 155.754L129.027 158.857C125.895 160.488 122.763 162.119 119.552 163.381C116.157 164.683 112.907 165.761 109.208 166.55L102.512 167.787ZM80.2022 143.865C84.825 142.879 89.5772 143.405 94.0496 145.338C99.6036 147.81 103.847 152.295 105.989 157.805C106.331 158.502 106.488 159.239 106.685 160.159L106.724 160.343L106.909 160.304C110.237 159.594 113.302 158.555 116.328 157.332C119.354 156.109 122.34 154.702 125.102 153.15L125.287 153.11L125.248 152.926C124.867 152.045 124.525 151.348 124.183 150.651C123.42 148.889 122.988 146.864 122.741 144.799C121.768 134.804 127.661 125.27 137.107 121.522C142.828 119.339 148.875 119.589 154.39 121.877L154.614 122.022L154.759 121.798C157.582 115.999 159.547 109.805 160.548 103.624L160.694 103.4L160.47 103.256C152.775 101.625 146.632 96.3907 143.766 89.3023C142.965 87.356 142.532 85.3308 142.325 83.4502C141.364 74.4155 146.225 65.486 154.405 61.2384L154.59 61.1989L154.551 61.0148C151.736 55.0706 148.036 49.5077 143.753 44.8391L143.529 44.6945L143.383 44.918C141.255 46.7197 139.047 48.1531 136.537 49.0737C130.816 51.2567 124.77 51.0068 119.255 48.7185C113.701 46.246 109.457 41.7615 107.315 36.2513C105.672 32.1745 105.323 27.8216 106.347 23.5607L106.493 23.3371L106.269 23.1925C99.9867 21.8379 93.4918 21.2986 87.0084 21.7194L86.8234 21.7589L86.8627 21.943C87.1625 31.5037 81.298 40.2621 72.3666 43.7076C63.2503 47.1925 53.2076 44.5228 47.002 37.1846L46.7778 37.0399L46.6322 37.2635C41.5284 41.4323 37.0972 46.0351 33.2322 51.4795L33.0866 51.7031L33.3108 51.8477C36.7522 54.3859 39.4262 57.8577 41.0694 61.9345C41.8713 63.8809 42.3033 65.9061 42.5112 67.7867C43.4836 77.7814 37.6306 87.4999 28.1445 91.0637C25.8192 91.9448 23.2304 92.4971 20.5238 92.4971L20.3389 92.5365L20.3781 92.7206C20.4404 94.8248 20.5027 96.9289 20.7498 98.9936C21.0986 103.347 22.0413 107.765 23.3146 111.921L23.3538 112.105L24.6482 111.829C35.5581 109.501 46.4535 115.261 50.4353 125.769C53.116 132.897 51.9921 141.221 47.466 147.192L47.3204 147.415L47.5446 147.56C52.634 151.479 58.1602 154.727 64.1234 157.305L64.3476 157.45L64.4932 157.226C66.9853 151.69 71.495 147.455 77.0702 145.496C78.0226 144.522 79.0927 144.102 80.2022 143.865Z" fill="#EB008B"/>
<path d="M99.2067 133.265C97.7274 133.58 96.0632 133.935 94.3597 134.106C70.8806 136.421 49.7998 119.166 47.5177 95.7841C45.275 72.5859 62.2257 51.4525 86.0746 49.0593C97.4444 47.981 108.608 51.374 117.481 58.5281C126.354 65.6823 131.854 76.0584 132.917 87.3813C135.03 109.067 120.472 128.728 99.2067 133.265ZM82.4846 55.7925C64.1783 59.6982 51.7373 76.597 53.5921 95.2581C55.5761 115.432 73.5854 130.069 93.8424 128.057C114.284 126.005 128.787 107.897 126.842 87.9073C125.909 78.0967 121.171 69.4829 113.644 63.1967C106.116 56.9105 96.4431 54.1619 86.7769 55.0692C85.2583 55.2007 83.779 55.5163 82.4846 55.7925Z" fill="#EB008B"/>
</svg>
