<svg width="183" height="183" viewBox="0 0 183 183" fill="none" xmlns="http://www.w3.org/2000/svg">
<path d="M102.96 167.783L101.294 161.787C101.137 161.05 100.835 160.537 100.717 159.985C99.0736 155.908 96.069 152.699 92.0057 150.871C87.9425 149.043 83.4931 149.03 79.3972 150.674C75.3013 152.318 72.0745 155.316 70.232 159.367L67.74 164.903L62.001 162.47C55.6287 159.787 49.4691 156.289 43.9314 152.081L39.0662 148.306L42.8248 143.27C46.1466 138.904 46.9629 132.762 45.0841 127.581C42.1007 119.94 34.2261 115.653 26.2749 117.349L19.5117 119.177L17.8456 113.18C16.4937 108.656 15.6573 103.83 15.2301 99.1087C14.9436 96.8599 14.8421 94.5716 14.9254 92.2439L14.9628 86.0761L21.3006 85.8789C23.2283 85.8526 25.0775 85.4581 26.8873 84.8795C33.8632 82.2362 38.1536 75.1611 37.3613 67.8229C37.232 66.3105 36.9177 64.8376 36.2337 63.4436C35.0111 60.432 33.1275 57.9465 30.6221 56.1711L25.572 52.4362L29.1065 47.2548C33.302 41.5473 38.1701 36.2738 43.6045 31.842L48.3777 27.9362L52.4755 32.6443C56.876 37.8652 64.4641 39.9037 71.0701 37.3393C77.6762 34.7749 81.9389 28.4757 81.5949 21.4268L81.4474 15.2985L87.561 14.9566C94.6385 14.6016 101.503 15.0619 108.419 16.6664L114.516 18.0604L113.291 24.0967C112.585 27.1345 112.883 30.3433 114.106 33.3549C115.749 37.4317 118.754 40.6405 122.817 42.4685C126.88 44.2965 131.33 44.3097 135.465 42.85C137.235 42.0873 138.966 41.1404 140.434 39.8648L145.168 35.7749L149.451 40.4435C154.261 45.7696 158.224 51.6613 161.342 58.1184L164.078 63.6944L158.514 66.6139C152.581 69.6122 148.952 76.1613 149.772 82.7236C149.901 84.236 150.215 85.7089 150.899 87.1029C153.002 92.429 157.458 96.0982 163.147 97.387L169.205 98.5969L168.164 104.594C166.911 111.406 164.839 118.008 161.765 124.438L159.088 130.014L153.349 127.581C149.325 125.938 144.836 125.74 140.74 127.384C133.764 130.027 129.474 137.102 130.227 144.257C130.356 145.769 130.671 147.242 131.355 148.636C131.473 149.188 131.775 149.701 132.078 150.214L134.999 155.751L129.475 158.854C126.343 160.485 123.211 162.115 120 163.378C116.605 164.68 113.355 165.758 109.657 166.547L102.96 167.783ZM80.6504 143.862C85.2732 142.875 90.0254 143.401 94.4978 145.335C100.052 147.807 104.295 152.292 106.437 157.802C106.779 158.499 106.937 159.235 107.133 160.156L107.172 160.34L107.357 160.301C110.686 159.59 113.751 158.551 116.776 157.328C119.802 156.105 122.788 154.698 125.551 153.147L125.735 153.107L125.696 152.923C125.315 152.042 124.973 151.345 124.631 150.648C123.868 148.886 123.436 146.86 123.189 144.796C122.216 134.801 128.109 125.267 137.556 121.519C143.276 119.336 149.323 119.586 154.838 121.874L155.062 122.019L155.208 121.795C158.03 115.995 159.995 109.801 160.997 103.621L161.142 103.397L160.918 103.252C153.224 101.622 147.08 96.3874 144.215 89.2991C143.413 87.3527 142.981 85.3275 142.773 83.4469C141.812 74.4122 146.673 65.4828 154.854 61.2351L155.038 61.1956L154.999 61.0116C152.184 55.0673 148.484 49.5045 144.201 44.8359L143.977 44.6912L143.832 44.9148C141.703 46.7164 139.495 48.1499 136.985 49.0704C131.264 51.2534 125.218 51.0035 119.703 48.7152C114.149 46.2428 109.906 41.7583 107.763 36.248C106.12 32.1712 105.771 27.8183 106.796 23.5574L106.941 23.3338L106.717 23.1892C100.435 21.8346 93.94 21.2954 87.4566 21.7161L87.2716 21.7556L87.3109 21.9397C87.6107 31.5004 81.7462 40.2589 72.8148 43.7043C63.6985 47.1893 53.6558 44.5196 47.4502 37.1813L47.226 37.0366L47.0804 37.2602C41.9766 41.429 37.5454 46.0318 33.6804 51.4762L33.5348 51.6998L33.759 51.8445C37.2004 54.3826 39.8745 57.8545 41.5176 61.9313C42.3195 63.8776 42.7516 65.9028 42.9595 67.7834C43.9319 77.7781 38.0788 87.4966 28.5927 91.0604C26.2674 91.9415 23.6786 92.4938 20.972 92.4938L20.7871 92.5333L20.8263 92.7174C20.8886 94.8215 20.9509 96.9257 21.1981 98.9904C21.5468 103.343 22.4895 107.762 23.7628 111.918L23.8021 112.102L25.0965 111.826C36.0063 109.498 46.9017 115.258 50.8835 125.766C53.5642 132.894 52.4403 141.218 47.9142 147.189L47.7686 147.412L47.9928 147.557C53.0822 151.476 58.6084 154.724 64.5716 157.302L64.7958 157.446L64.9414 157.223C67.4335 151.686 71.9433 147.452 77.5184 145.492C78.4708 144.519 79.541 144.098 80.6504 143.862Z" fill="#EB008B"/>
<path d="M99.6549 133.261C98.1756 133.577 96.5114 133.932 94.8079 134.103C71.3288 136.417 50.248 119.163 47.9659 95.7808C45.7232 72.5826 62.6739 51.4493 86.5228 49.056C97.8925 47.9777 109.056 51.3707 117.929 58.5248C126.802 65.679 132.302 76.0551 133.365 87.3781C135.478 109.064 120.92 128.724 99.6549 133.261ZM82.9328 55.7892C64.6265 59.6949 52.1855 76.5937 54.0402 95.2548C56.0243 115.428 74.0335 130.065 94.2905 128.053C114.732 126.002 129.235 107.893 127.29 87.904C126.357 78.0935 121.62 69.4796 114.092 63.1934C106.564 56.9072 96.8913 54.1586 87.2251 55.0659C85.7065 55.1974 84.2272 55.5131 82.9328 55.7892Z" fill="#EB008B"/>
</svg>
