<svg width="274" height="274" viewBox="0 0 274 274" fill="none" xmlns="http://www.w3.org/2000/svg">
<path d="M154.33 250.518L151.834 241.535C151.599 240.432 151.145 239.663 150.969 238.836C148.508 232.729 144.007 227.922 137.92 225.184C131.834 222.446 125.169 222.426 119.033 224.889C112.898 227.351 108.064 231.842 105.304 237.91L101.571 246.203L92.9744 242.559C83.429 238.54 74.2022 233.3 65.9069 226.996L58.6191 221.342L64.2494 213.797C69.2252 207.257 70.448 198.057 67.6337 190.296C63.1646 178.85 51.3688 172.428 39.4582 174.969L29.3272 177.708L26.8315 168.725C24.8065 161.948 23.5536 154.718 22.9136 147.646C22.4845 144.278 22.3324 140.85 22.4573 137.363L22.5133 128.124L32.007 127.829C34.8946 127.789 37.6646 127.198 40.3756 126.331C50.8252 122.372 57.252 111.774 56.0652 100.781C55.8715 98.5159 55.4008 96.3095 54.376 94.2214C52.5448 89.7102 49.7232 85.987 45.9702 83.3275L38.4054 77.7328L43.6999 69.9712C49.9846 61.4217 57.2768 53.5223 65.4172 46.8836L72.5674 41.0329L78.7056 48.0854C85.2974 55.9061 96.664 58.9596 106.56 55.1183C116.455 51.277 122.84 41.841 122.325 31.282L122.104 22.1021L131.262 21.5899C141.864 21.0581 152.147 21.7477 162.506 24.1511L171.64 26.2393L169.804 35.2814C168.748 39.8319 169.194 44.6386 171.025 49.1498C173.487 55.2567 177.987 60.0634 184.074 62.8017C190.161 65.5399 196.826 65.5597 203.02 63.3731C205.672 62.2305 208.265 60.8122 210.464 58.9013L217.555 52.7749L223.971 59.7682C231.175 67.7466 237.113 76.572 241.783 86.2445L245.881 94.5971L237.547 98.9703C228.659 103.462 223.223 113.272 224.451 123.102C224.645 125.367 225.115 127.574 226.14 129.662C229.29 137.64 235.965 143.137 244.486 145.067L253.561 146.88L252.002 155.862C250.125 166.067 247.022 175.956 242.416 185.589L238.406 193.942L229.81 190.297C223.782 187.835 217.058 187.539 210.923 190.001C200.473 193.961 194.046 204.559 195.174 215.276C195.368 217.541 195.839 219.747 196.863 221.836C197.04 222.663 197.493 223.431 197.947 224.2L202.323 232.493L194.047 237.142C189.356 239.585 184.664 242.028 179.855 243.919C174.768 245.869 169.9 247.484 164.361 248.666L154.33 250.518ZM120.91 214.684C127.835 213.207 134.954 213.995 141.653 216.891C149.973 220.594 156.329 227.312 159.538 235.566C160.051 236.61 160.286 237.713 160.58 239.092L160.639 239.368L160.916 239.309C165.902 238.245 170.493 236.689 175.025 234.857C179.558 233.025 184.031 230.917 188.169 228.592L188.446 228.533L188.387 228.258C187.816 226.938 187.304 225.894 186.791 224.85C185.649 222.21 185.002 219.176 184.631 216.083C183.175 201.112 192.001 186.83 206.152 181.215C214.722 177.945 223.779 178.32 232.04 181.747L232.376 181.964L232.594 181.629C236.822 172.942 239.766 163.663 241.265 154.405L241.484 154.07L241.148 153.853C229.622 151.41 220.419 143.57 216.127 132.952C214.926 130.036 214.278 127.003 213.967 124.185C212.528 110.652 219.81 97.276 232.063 90.9131L232.34 90.8541L232.282 90.5783C228.065 81.6741 222.522 73.3412 216.107 66.3478L215.771 66.1311L215.553 66.466C212.364 69.1648 209.058 71.312 205.297 72.691C196.728 75.961 187.67 75.5866 179.41 72.1589C171.09 68.4553 164.733 61.7377 161.524 53.4836C159.063 47.3768 158.541 40.8562 160.075 34.4736L160.293 34.1387L159.957 33.922C150.547 31.8929 140.818 31.0851 131.106 31.7155L130.829 31.7746L130.888 32.0504C131.337 46.3719 122.552 59.4917 109.173 64.6528C95.5172 69.8731 80.4736 65.874 71.178 54.8816L70.8422 54.6649L70.624 54.9998C62.9788 61.2445 56.341 68.1393 50.5514 76.2948L50.3332 76.6297L50.6691 76.8464C55.8242 80.6485 59.8298 85.8491 62.2911 91.956C63.4923 94.8715 64.1396 97.9052 64.451 100.722C65.9076 115.694 57.14 130.252 42.9302 135.59C39.447 136.91 35.5691 137.737 31.5147 137.737L31.2377 137.796L31.2966 138.072C31.3898 141.224 31.4831 144.376 31.8534 147.469C32.3757 153.989 33.7879 160.608 35.6952 166.834L35.7541 167.109L37.693 166.696C54.0355 163.209 70.3563 171.837 76.3209 187.577C80.3364 198.255 78.6529 210.724 71.873 219.668L71.6549 220.003L71.9907 220.219C79.6144 226.09 87.8925 230.956 96.8251 234.817L97.1609 235.034L97.379 234.699C101.112 226.405 107.867 220.062 116.219 217.127C117.645 215.669 119.249 215.039 120.91 214.684Z" fill="#EB008B"/>
<path d="M149.378 198.805C147.163 199.278 144.67 199.81 142.118 200.066C106.947 203.533 75.369 177.687 71.9506 142.661C68.5911 107.911 93.9826 76.2544 129.707 72.6694C146.739 71.0542 163.461 76.1367 176.752 86.8534C190.044 97.57 198.283 113.113 199.874 130.074C203.04 162.559 181.232 192.009 149.378 198.805ZM124.329 82.7555C96.9074 88.606 78.2713 113.92 81.0497 141.873C84.0218 172.092 110.999 194.018 141.343 191.004C171.964 187.931 193.689 160.805 190.775 130.862C189.378 116.166 182.281 103.263 171.004 93.8466C159.728 84.4302 145.239 80.3129 130.759 81.6721C128.484 81.869 126.268 82.3418 124.329 82.7555Z" fill="#EB008B"/>
</svg>
